<svg xmlns="http://www.w3.org/2000/svg" xmlns:xlink="http://www.w3.org/1999/xlink" width="1080" zoomAndPan="magnify" viewBox="0 0 810 1012.49997" height="1350" preserveAspectRatio="xMidYMid meet" version="1.0"><defs><clipPath id="a11f2218fc"><path d="M 289 545.636719 L 300 545.636719 L 300 551 L 289 551 Z M 289 545.636719 " clip-rule="nonzero"/></clipPath><clipPath id="0adb982799"><path d="M 300 549 L 305.175781 549 L 305.175781 560 L 300 560 Z M 300 549 " clip-rule="nonzero"/></clipPath><clipPath id="186c5c7da6"><path d="M 289 560 L 300 560 L 300 565.128906 L 289 565.128906 Z M 289 560 " clip-rule="nonzero"/></clipPath><clipPath id="342f94d7b1"><path d="M 286 131.820312 L 440 131.820312 L 440 506 L 286 506 Z M 286 131.820312 " clip-rule="nonzero"/></clipPath><clipPath id="3913a725a8"><path d="M 136.527344 750 L 457 750 L 457 810 L 136.527344 810 Z M 136.527344 750 " clip-rule="nonzero"/></clipPath><clipPath id="e8cf667d1b"><path d="M 431 638 L 673.261719 638 L 673.261719 879.953125 L 431 879.953125 Z M 431 638 " clip-rule="nonzero"/></clipPath></defs><path fill="#2aa3ff" d="M 294.625 550.09375 C 295.269531 553.472656 291.402344 554.824219 291.402344 556.855469 C 291.402344 558.613281 292.847656 560.039062 294.625 560.039062 C 296.402344 560.039062 297.847656 558.613281 297.847656 556.855469 C 297.847656 554.824219 296.234375 551.882812 294.625 550.09375 Z M 294.625 550.09375 " fill-opacity="1" fill-rule="evenodd"/><g clip-path="url(#a11f2218fc)"><path fill="#6c95b4" d="M 299.929688 549.074219 L 297.0625 550.082031 L 297.847656 548.714844 C 297.847656 548.714844 296.894531 547.886719 294.25 547.886719 C 291.890625 547.886719 290.308594 549.1875 290.308594 549.1875 L 289.957031 547.527344 C 289.957031 547.527344 291.796875 546.136719 294.4375 546.222656 C 297.078125 546.308594 298.3125 547.324219 298.3125 547.324219 L 298.453125 545.636719 Z M 299.929688 549.074219 " fill-opacity="1" fill-rule="evenodd"/></g><g clip-path="url(#0adb982799)"><path fill="#6c95b4" d="M 301.707031 559.761719 L 300.453125 557.019531 L 301.898438 557.679688 C 301.898438 557.679688 302.65625 556.675781 302.4375 554.070312 C 302.242188 551.746094 300.796875 550.296875 300.796875 550.296875 L 302.445312 549.8125 C 302.445312 549.8125 304 551.507812 304.128906 554.117188 C 304.261719 556.726562 303.339844 558.023438 303.339844 558.023438 L 305.050781 558.023438 Z M 301.707031 559.761719 " fill-opacity="1" fill-rule="evenodd"/></g><g clip-path="url(#186c5c7da6)"><path fill="#6c95b4" d="M 289.984375 561.691406 L 292.847656 560.671875 L 292.066406 562.042969 C 292.066406 562.042969 293.023438 562.867188 295.667969 562.855469 C 298.027344 562.847656 299.601562 561.539062 299.601562 561.539062 L 299.960938 563.199219 C 299.960938 563.199219 298.128906 564.597656 295.488281 564.523438 C 292.84375 564.445312 291.605469 563.433594 291.605469 563.433594 L 291.472656 565.121094 Z M 289.984375 561.691406 " fill-opacity="1" fill-rule="evenodd"/></g><path fill="#6c95b4" d="M 288.738281 550.242188 L 289.664062 553.109375 L 288.304688 552.285156 C 288.304688 552.285156 287.4375 553.199219 287.351562 555.808594 C 287.273438 558.140625 288.539062 559.746094 288.539062 559.746094 L 286.847656 560.039062 C 286.847656 560.039062 285.5 558.179688 285.671875 555.570312 C 285.847656 552.964844 286.917969 551.78125 286.917969 551.78125 L 285.214844 551.585938 Z M 288.738281 550.242188 " fill-opacity="1" fill-rule="evenodd"/><path fill="#5cae36" d="M 173.304688 767.640625 C 168.574219 767.640625 164.738281 763.808594 164.738281 759.078125 L 164.738281 705.089844 C 164.738281 668.691406 177.410156 633.164062 200.441406 605.039062 C 223.136719 577.308594 254.835938 557.957031 289.6875 550.511719 C 300.472656 548.1875 311.636719 547.019531 322.828125 547.019531 L 403.019531 547.019531 C 414.214844 547.019531 425.390625 548.1875 436.195312 550.511719 C 486.671875 561.316406 528.75 596.203125 548.78125 643.878906 C 550.628906 648.238281 548.578125 653.257812 544.203125 655.089844 C 539.84375 656.921875 534.839844 654.871094 532.992188 650.507812 C 515.152344 608.007812 477.617188 576.902344 432.621094 567.265625 C 422.972656 565.179688 413.015625 564.144531 403.023438 564.144531 L 322.835938 564.144531 C 312.84375 564.144531 302.90625 565.179688 293.273438 567.265625 C 228.71875 581.019531 181.875 638.992188 181.875 705.089844 L 181.875 759.074219 C 181.886719 763.808594 178.035156 767.640625 173.304688 767.640625 Z M 173.304688 767.640625 " fill-opacity="1" fill-rule="evenodd"/><path fill="#5cae36" d="M 434.410156 567.4375 C 429.679688 567.4375 425.847656 563.621094 425.847656 558.875 L 425.847656 510.707031 C 425.847656 507.992188 423.625 505.804688 420.910156 505.804688 L 304.953125 505.804688 C 302.238281 505.804688 300.035156 508.007812 300.035156 510.707031 L 300.035156 558.875 C 300.035156 563.621094 296.199219 567.4375 291.46875 567.4375 C 286.738281 567.4375 282.902344 563.621094 282.902344 558.875 L 282.902344 510.707031 C 282.902344 498.5625 292.792969 488.65625 304.953125 488.65625 L 420.910156 488.65625 C 433.074219 488.65625 442.976562 498.546875 442.976562 510.707031 L 442.976562 558.875 C 442.980469 563.621094 439.144531 567.4375 434.410156 567.4375 Z M 434.410156 567.4375 " fill-opacity="1" fill-rule="evenodd"/><g clip-path="url(#342f94d7b1)"><path fill="#5cae36" d="M 412.769531 505.804688 C 412.582031 505.804688 412.414062 505.789062 412.230469 505.769531 C 407.496094 505.480469 403.917969 501.410156 404.207031 496.695312 L 422.03125 211.960938 C 423.066406 195.457031 417.382812 179.734375 406.070312 167.691406 C 394.757812 155.648438 379.425781 149.019531 362.90625 149.019531 C 346.382812 149.019531 331.050781 155.652344 319.738281 167.691406 C 308.441406 179.734375 302.761719 195.457031 303.8125 211.960938 L 321.605469 496.679688 C 321.894531 501.410156 318.3125 505.464844 313.582031 505.769531 C 308.882812 506.074219 304.8125 502.476562 304.507812 497.746094 L 286.699219 213.027344 C 285.359375 191.757812 292.667969 171.492188 307.253906 155.953125 C 321.839844 140.417969 341.597656 131.871094 362.902344 131.871094 C 384.207031 131.871094 403.964844 140.417969 418.550781 155.953125 C 433.152344 171.472656 440.460938 191.742188 439.140625 213.011719 L 421.316406 497.761719 C 421.046875 502.308594 417.265625 505.804688 412.769531 505.804688 Z M 412.769531 505.804688 " fill-opacity="1" fill-rule="evenodd"/></g><g clip-path="url(#3913a725a8)"><path fill="#5cae36" d="M 447.964844 809.398438 L 153.476562 809.398438 C 144.132812 809.398438 136.535156 801.800781 136.535156 792.457031 L 136.535156 787.367188 C 136.535156 767.117188 153.019531 750.5625 173.269531 750.511719 L 439.957031 750.511719 C 444.691406 750.511719 448.523438 754.347656 448.523438 759.078125 C 448.523438 763.808594 444.691406 767.640625 439.957031 767.640625 L 173.386719 767.640625 C 162.480469 767.675781 153.664062 776.53125 153.664062 787.367188 L 153.664062 792.269531 L 447.964844 792.269531 C 452.695312 792.269531 456.527344 796.101562 456.527344 800.832031 C 456.527344 805.566406 452.699219 809.398438 447.964844 809.398438 Z M 447.964844 809.398438 " fill-opacity="1" fill-rule="evenodd"/></g><path fill="#5cae36" d="M 362.90625 196.507812 C 354.101562 196.507812 346.929688 203.683594 346.929688 212.503906 C 346.929688 221.304688 354.101562 228.480469 362.90625 228.480469 C 371.726562 228.480469 378.898438 221.304688 378.898438 212.503906 C 378.898438 203.667969 371.726562 196.507812 362.90625 196.507812 Z M 362.90625 245.59375 C 344.640625 245.59375 329.800781 230.734375 329.800781 212.488281 C 329.800781 194.222656 344.640625 179.363281 362.90625 179.363281 C 381.171875 179.363281 396.03125 194.222656 396.03125 212.488281 C 396.03125 230.734375 381.171875 245.59375 362.90625 245.59375 Z M 362.90625 245.59375 " fill-opacity="1" fill-rule="evenodd"/><path fill="#5cae36" d="M 552.441406 703.71875 L 517.996094 763.371094 C 510.804688 775.820312 510.804688 790.675781 517.996094 803.125 C 525.207031 815.574219 538.0625 823.019531 552.441406 823.019531 C 566.808594 823.019531 579.699219 815.59375 586.875 803.125 C 594.066406 790.675781 594.066406 775.820312 586.875 763.371094 Z M 552.441406 840.164062 C 531.871094 840.164062 513.449219 829.53125 503.171875 811.707031 C 492.878906 793.878906 492.878906 772.613281 503.15625 754.820312 L 545.03125 682.332031 C 546.558594 679.667969 549.390625 678.039062 552.460938 678.039062 C 555.511719 678.039062 558.34375 679.667969 559.886719 682.332031 L 601.746094 754.820312 C 612.023438 772.628906 612.023438 793.898438 601.746094 811.707031 C 591.433594 829.53125 573.015625 840.164062 552.441406 840.164062 Z M 552.441406 840.164062 " fill-opacity="1" fill-rule="evenodd"/><g clip-path="url(#e8cf667d1b)"><path fill="#5cae36" d="M 552.441406 655.191406 C 495.152344 655.191406 448.527344 701.800781 448.527344 759.109375 C 448.527344 816.402344 495.132812 863.007812 552.441406 863.007812 C 609.734375 863.007812 656.34375 816.402344 656.34375 759.109375 C 656.34375 701.800781 609.753906 655.191406 552.441406 655.191406 Z M 552.441406 880.140625 C 485.6875 880.140625 431.394531 825.835938 431.394531 759.09375 C 431.394531 692.351562 485.6875 638.042969 552.441406 638.042969 C 619.183594 638.042969 673.472656 692.351562 673.472656 759.09375 C 673.472656 825.835938 619.183594 880.140625 552.441406 880.140625 Z M 552.441406 880.140625 " fill-opacity="1" fill-rule="evenodd"/></g></svg>