<svg xmlns="http://www.w3.org/2000/svg" xmlns:xlink="http://www.w3.org/1999/xlink" width="1080" zoomAndPan="magnify" viewBox="0 0 810 1012.49997" height="1350" preserveAspectRatio="xMidYMid meet" version="1.0"><defs><clipPath id="88400d1098"><path d="M 321 808.847656 L 332 808.847656 L 332 814 L 321 814 Z M 321 808.847656 " clip-rule="nonzero"/></clipPath><clipPath id="b73e7aa45f"><path d="M 331 813 L 336.277344 813 L 336.277344 823 L 331 823 Z M 331 813 " clip-rule="nonzero"/></clipPath><clipPath id="2b83a71bd9"><path d="M 321 823 L 332 823 L 332 828.335938 L 321 828.335938 Z M 321 823 " clip-rule="nonzero"/></clipPath><clipPath id="e6174dfaa0"><path d="M 316.039062 813 L 321 813 L 321 824 L 316.039062 824 Z M 316.039062 813 " clip-rule="nonzero"/></clipPath><clipPath id="010b495a3c"><path d="M 71.746094 157 L 253 157 L 253 861.179688 L 71.746094 861.179688 Z M 71.746094 157 " clip-rule="nonzero"/></clipPath><clipPath id="3526036051"><path d="M 220 150.527344 L 738.167969 150.527344 L 738.167969 859 L 220 859 Z M 220 150.527344 " clip-rule="nonzero"/></clipPath></defs><path fill="#2aa3ff" d="M 325.730469 813.300781 C 326.375 816.683594 322.507812 818.035156 322.507812 820.0625 C 322.507812 821.820312 323.949219 823.246094 325.730469 823.246094 C 327.507812 823.246094 328.953125 821.820312 328.953125 820.0625 C 328.953125 818.035156 327.339844 815.089844 325.730469 813.300781 Z M 325.730469 813.300781 " fill-opacity="1" fill-rule="evenodd"/><g clip-path="url(#88400d1098)"><path fill="#6c95b4" d="M 331.035156 812.285156 L 328.164062 813.292969 L 328.953125 811.921875 C 328.953125 811.921875 328 811.09375 325.355469 811.09375 C 322.992188 811.09375 321.414062 812.398438 321.414062 812.398438 L 321.0625 810.734375 C 321.0625 810.734375 322.898438 809.34375 325.539062 809.429688 C 328.183594 809.515625 329.417969 810.535156 329.417969 810.535156 L 329.558594 808.847656 Z M 331.035156 812.285156 " fill-opacity="1" fill-rule="evenodd"/></g><g clip-path="url(#b73e7aa45f)"><path fill="#6c95b4" d="M 332.808594 822.96875 L 331.554688 820.226562 L 333.003906 820.890625 C 333.003906 820.890625 333.757812 819.882812 333.539062 817.28125 C 333.34375 814.953125 331.902344 813.503906 331.902344 813.503906 L 333.550781 813.023438 C 333.550781 813.023438 335.105469 814.71875 335.234375 817.324219 C 335.363281 819.933594 334.441406 821.234375 334.441406 821.234375 L 336.15625 821.234375 Z M 332.808594 822.96875 " fill-opacity="1" fill-rule="evenodd"/></g><g clip-path="url(#2b83a71bd9)"><path fill="#6c95b4" d="M 321.085938 824.898438 L 323.953125 823.878906 L 323.171875 825.253906 C 323.171875 825.253906 324.125 826.074219 326.769531 826.066406 C 329.132812 826.054688 330.707031 824.75 330.707031 824.75 L 331.066406 826.410156 C 331.066406 826.410156 329.234375 827.804688 326.59375 827.730469 C 323.949219 827.652344 322.710938 826.644531 322.710938 826.644531 L 322.578125 828.332031 Z M 321.085938 824.898438 " fill-opacity="1" fill-rule="evenodd"/></g><g clip-path="url(#e6174dfaa0)"><path fill="#6c95b4" d="M 319.84375 813.449219 L 320.769531 816.316406 L 319.410156 815.492188 C 319.410156 815.492188 318.542969 816.40625 318.457031 819.019531 C 318.378906 821.351562 319.640625 822.953125 319.640625 822.953125 L 317.949219 823.246094 C 317.949219 823.246094 316.605469 821.386719 316.777344 818.78125 C 316.953125 816.175781 318.019531 814.988281 318.019531 814.988281 L 316.316406 814.792969 Z M 319.84375 813.449219 " fill-opacity="1" fill-rule="evenodd"/></g><g clip-path="url(#010b495a3c)"><path fill="#5cae36" d="M 71.96875 853.777344 L 215.347656 157.578125 L 252.980469 165.328125 L 109.601562 861.527344 Z M 71.96875 853.777344 " fill-opacity="1" fill-rule="nonzero"/></g><g clip-path="url(#3526036051)"><path fill="#5cae36" d="M 246.441406 257.226562 C 246.441406 259.0625 246.757812 260.875 247.332031 262.671875 L 247.332031 286.285156 C 243.269531 287.199219 240.203125 290.832031 240.203125 295.164062 L 240.203125 296.5625 C 240.203125 300.894531 243.269531 304.527344 247.332031 305.441406 L 247.332031 423.597656 C 243.269531 424.507812 240.203125 428.144531 240.203125 432.472656 L 240.203125 433.875 C 240.203125 438.199219 243.269531 441.835938 247.332031 442.75 L 247.332031 560.90625 C 243.269531 561.816406 240.203125 565.453125 240.203125 569.785156 L 240.203125 571.179688 C 240.203125 575.511719 243.269531 579.148438 247.332031 580.058594 L 247.332031 698.214844 C 243.269531 699.125 240.203125 702.761719 240.203125 707.09375 L 240.203125 708.488281 C 240.203125 712.820312 243.269531 716.457031 247.332031 717.367188 L 247.332031 766.933594 C 247.332031 779.074219 256.4375 789.070312 268.183594 790.515625 L 220.226562 790.515625 L 220.226562 858.226562 L 738.082031 858.226562 L 738.082031 790.515625 L 690.125 790.515625 C 701.875 789.070312 710.976562 779.074219 710.976562 766.933594 L 710.976562 717.367188 C 715.042969 716.457031 718.109375 712.820312 718.109375 708.488281 L 718.109375 707.09375 C 718.109375 702.765625 715.042969 699.125 710.976562 698.214844 L 710.976562 580.058594 C 715.042969 579.148438 718.109375 575.511719 718.109375 571.179688 L 718.109375 569.785156 C 718.109375 565.453125 715.042969 561.816406 710.976562 560.90625 L 710.976562 442.75 C 715.042969 441.839844 718.109375 438.199219 718.109375 433.875 L 718.109375 432.472656 C 718.109375 428.144531 715.042969 424.507812 710.976562 423.597656 L 710.976562 305.441406 C 715.042969 304.527344 718.109375 300.894531 718.109375 296.5625 L 718.109375 295.164062 C 718.109375 290.832031 715.042969 287.199219 710.976562 286.285156 L 710.976562 262.671875 C 711.554688 260.875 711.867188 259.0625 711.867188 257.226562 C 711.867188 235.871094 671.875 217.027344 610.890625 205.773438 L 610.890625 174.019531 C 615.394531 172.574219 618.695312 168.386719 618.695312 163.425781 L 618.695312 161.707031 C 618.695312 155.558594 613.664062 150.527344 607.515625 150.527344 L 350.796875 150.527344 C 344.648438 150.527344 339.617188 155.558594 339.617188 161.707031 L 339.617188 163.425781 C 339.617188 168.386719 342.917969 172.574219 347.417969 174.019531 L 347.417969 205.773438 C 286.4375 217.027344 246.441406 235.871094 246.441406 257.226562 Z M 687.199219 776.550781 L 271.113281 776.550781 C 265.808594 776.550781 261.496094 772.238281 261.496094 766.933594 L 261.496094 759.609375 C 269.09375 760.800781 282.851562 762.007812 305.347656 761.019531 C 347.3125 759.175781 402.316406 758.5625 419.246094 762.898438 C 423.253906 763.925781 429.773438 764.328125 437.699219 764.328125 C 454.914062 764.324219 478.742188 762.425781 497.757812 760.910156 C 509.777344 759.953125 520.152344 759.125 524.804688 759.125 C 531.960938 759.125 550.074219 759.621094 569.25 760.140625 C 591.140625 760.738281 613.78125 761.355469 624.027344 761.355469 C 633.378906 761.355469 644.757812 760.265625 656.800781 759.113281 C 669.917969 757.859375 683.46875 756.578125 696.8125 756.367188 L 696.8125 766.933594 C 696.8125 772.238281 692.5 776.550781 687.199219 776.550781 Z M 349.988281 219.703125 L 361.578125 217.5625 L 361.578125 164.691406 L 596.730469 164.691406 L 596.730469 217.5625 L 608.320312 219.703125 C 675.855469 232.164062 697.703125 250.363281 697.703125 257.226562 C 697.703125 257.53125 697.636719 257.894531 697.503906 258.308594 L 696.8125 260.4375 L 696.8125 752.320312 C 683.285156 752.53125 669.628906 753.824219 656.417969 755.085938 C 644.46875 756.230469 633.183594 757.308594 624.027344 757.308594 C 613.835938 757.308594 591.226562 756.691406 569.359375 756.097656 C 550.15625 755.574219 532.015625 755.082031 524.804688 755.082031 C 519.992188 755.082031 510.039062 755.875 497.4375 756.878906 C 469.957031 759.070312 432.320312 762.070312 420.246094 758.976562 C 402.894531 754.53125 347.40625 755.125 305.171875 756.976562 C 282.316406 757.980469 268.644531 756.65625 261.496094 755.488281 L 261.496094 260.449219 L 260.816406 258.335938 C 260.675781 257.898438 260.605469 257.527344 260.605469 257.226562 C 260.605469 250.363281 282.453125 232.164062 349.988281 219.703125 Z M 349.988281 219.703125 " fill-opacity="1" fill-rule="nonzero"/></g><path fill="#5cae36" d="M 354.898438 739.449219 C 359.667969 743.53125 365.515625 745.53125 371.339844 745.53125 C 378.46875 745.53125 385.554688 742.53125 390.558594 736.691406 L 457.476562 658.554688 C 462.457031 652.742188 464.535156 644.988281 463.128906 637.460938 L 456.976562 604.535156 L 410.796875 572.132812 C 406.355469 570.59375 402.148438 567.441406 397.929688 563.890625 L 411.183594 634.851562 L 352.140625 703.789062 C 343.058594 714.398438 344.292969 730.363281 354.898438 739.449219 Z M 354.898438 739.449219 " fill-opacity="1" fill-rule="nonzero"/><path fill="#5cae36" d="M 645.898438 379.074219 L 586.128906 446.476562 L 518.957031 421.214844 C 506.496094 414.792969 488.976562 413.675781 470.378906 424.195312 C 433.015625 445.625 413.183594 463.554688 387.304688 500.671875 C 370.453125 529.253906 384.949219 546.5625 398.984375 558.675781 C 404.253906 563.21875 408.601562 566.621094 412.898438 567.925781 L 496.765625 626.773438 L 539.394531 730.613281 C 543.410156 740.390625 552.847656 746.304688 562.800781 746.304688 C 566 746.304688 569.25 745.695312 572.394531 744.40625 C 585.316406 739.101562 591.492188 724.328125 586.1875 711.40625 L 540.746094 600.71875 C 538.910156 596.246094 535.832031 592.394531 531.878906 589.621094 L 452.78125 534.121094 C 464.195312 521.785156 477.503906 510.625 490.171875 500.726562 L 473.277344 466.535156 C 470.8125 461.546875 470.4375 455.894531 472.222656 450.621094 C 474.007812 445.347656 477.738281 441.085938 482.730469 438.621094 C 485.625 437.1875 488.726562 436.460938 491.949219 436.460938 C 499.941406 436.460938 507.105469 440.910156 510.640625 448.074219 L 523.765625 474.625 C 527.6875 470.582031 530.90625 465.960938 533.136719 461.132812 L 585.15625 480.695312 C 587.015625 481.390625 588.941406 481.730469 590.851562 481.730469 C 595.394531 481.730469 599.832031 479.816406 602.964844 476.28125 L 654.109375 418.601562 L 654.109375 427.714844 C 654.109375 431.941406 669.476562 431.941406 669.476562 427.714844 L 669.476562 427.511719 L 686.136719 430.792969 L 686.136719 370.726562 L 682.550781 367.34375 L 686.136719 364.144531 L 686.136719 352.929688 L 669.476562 356.210938 L 669.476562 356.011719 C 669.476562 351.785156 654.109375 351.785156 654.109375 356.011719 L 654.109375 374.109375 C 651.039062 374.867188 648.15625 376.527344 645.898438 379.074219 Z M 684.113281 363.238281 L 679.558594 367.296875 L 684.113281 371.597656 L 684.113281 428.335938 L 669.476562 425.453125 L 669.476562 358.273438 L 684.113281 355.390625 Z M 684.113281 363.238281 " fill-opacity="1" fill-rule="nonzero"/><path fill="#5cae36" d="M 514.871094 540.203125 C 516.546875 543.597656 519.363281 546.296875 522.828125 547.832031 L 612.367188 587.480469 C 614.496094 588.421875 616.71875 588.871094 618.910156 588.871094 C 625.121094 588.871094 631.042969 585.273438 633.71875 579.234375 C 637.335938 571.058594 633.648438 561.5 625.472656 557.878906 L 541.292969 520.605469 L 506.46875 450.132812 C 502.511719 442.117188 492.796875 438.832031 484.789062 442.792969 C 476.777344 446.753906 473.488281 456.460938 477.449219 464.472656 Z M 514.871094 540.203125 " fill-opacity="1" fill-rule="nonzero"/><path fill="#5cae36" d="M 667.773438 448.058594 C 673.734375 447.757812 677.6875 443.269531 677.851562 443.078125 C 678.578125 442.238281 678.488281 440.964844 677.648438 440.234375 C 676.808594 439.503906 675.535156 439.589844 674.796875 440.425781 C 674.765625 440.457031 671.757812 443.824219 667.539062 444.019531 C 664.84375 444.144531 662.128906 442.9375 659.484375 440.441406 C 658.667969 439.671875 657.390625 439.707031 656.625 440.519531 C 655.855469 441.332031 655.894531 442.613281 656.707031 443.378906 C 660.003906 446.496094 663.511719 448.074219 667.144531 448.074219 C 667.355469 448.074219 667.566406 448.070312 667.773438 448.058594 Z M 667.773438 448.058594 " fill-opacity="1" fill-rule="nonzero"/><path fill="#5cae36" d="M 679.328125 448.964844 C 679.277344 449.015625 674.214844 454.128906 667.277344 454.140625 C 667.269531 454.140625 667.261719 454.140625 667.253906 454.140625 C 662.71875 454.140625 658.292969 451.96875 654.097656 447.691406 C 653.320312 446.890625 652.039062 446.878906 651.238281 447.660156 C 650.441406 448.445312 650.429688 449.722656 651.210938 450.523438 C 656.191406 455.609375 661.589844 458.183594 667.253906 458.183594 C 667.277344 458.183594 667.308594 458.183594 667.332031 458.183594 C 675.996094 458.148438 681.984375 452.035156 682.234375 451.777344 C 683.011719 450.972656 682.988281 449.699219 682.1875 448.921875 C 681.382812 448.144531 680.101562 448.167969 679.328125 448.964844 Z M 679.328125 448.964844 " fill-opacity="1" fill-rule="nonzero"/><path fill="#5cae36" d="M 654.625 341.203125 C 653.894531 342.046875 653.988281 343.316406 654.828125 344.050781 C 655.210938 344.382812 655.683594 344.546875 656.152344 344.546875 C 656.71875 344.546875 657.277344 344.3125 657.679688 343.859375 C 657.707031 343.824219 660.71875 340.460938 664.9375 340.265625 C 667.628906 340.140625 670.34375 341.34375 672.992188 343.84375 C 673.804688 344.609375 675.082031 344.574219 675.851562 343.761719 C 676.617188 342.949219 676.582031 341.667969 675.769531 340.902344 C 672.28125 337.605469 668.515625 336.039062 664.699219 336.226562 C 658.738281 336.523438 654.789062 341.011719 654.625 341.203125 Z M 654.625 341.203125 " fill-opacity="1" fill-rule="nonzero"/><path fill="#5cae36" d="M 653.148438 335.316406 C 653.199219 335.265625 658.261719 330.152344 665.199219 330.144531 C 665.203125 330.144531 665.210938 330.144531 665.21875 330.144531 C 669.753906 330.144531 674.183594 332.3125 678.375 336.589844 C 678.769531 336.996094 679.292969 337.199219 679.820312 337.199219 C 680.332031 337.199219 680.839844 337.007812 681.234375 336.621094 C 682.035156 335.839844 682.046875 334.558594 681.265625 333.761719 C 676.28125 328.675781 670.882812 326.097656 665.21875 326.097656 C 665.191406 326.097656 665.167969 326.097656 665.140625 326.097656 C 656.476562 326.132812 650.488281 332.242188 650.238281 332.503906 C 649.464844 333.308594 649.488281 334.582031 650.289062 335.359375 C 651.089844 336.136719 652.367188 336.113281 653.148438 335.316406 Z M 653.148438 335.316406 " fill-opacity="1" fill-rule="nonzero"/><path fill="#5cae36" d="M 533.238281 417.042969 C 556.921875 425.476562 582.957031 413.113281 591.390625 389.429688 C 593.144531 384.503906 593.988281 379.480469 594.027344 374.53125 L 504.660156 361.964844 C 498.292969 384.789062 510.574219 408.972656 533.238281 417.042969 Z M 533.238281 417.042969 " fill-opacity="1" fill-rule="nonzero"/><path fill="#5cae36" d="M 595.691406 370.066406 C 599.132812 370.550781 602.347656 368.128906 602.832031 364.6875 C 603.316406 361.242188 600.894531 358.027344 597.449219 357.542969 L 594.652344 357.152344 C 595.214844 335.097656 579.164062 315.644531 556.792969 312.5 C 534.421875 309.355469 513.628906 323.625 508.089844 344.980469 L 505.289062 344.585938 C 501.847656 344.101562 498.632812 346.523438 498.148438 349.96875 C 497.664062 353.410156 500.085938 356.625 503.53125 357.109375 Z M 595.691406 370.066406 " fill-opacity="1" fill-rule="nonzero"/></svg>