<svg xmlns="http://www.w3.org/2000/svg" xmlns:xlink="http://www.w3.org/1999/xlink" width="1080" zoomAndPan="magnify" viewBox="0 0 810 1012.49997" height="1350" preserveAspectRatio="xMidYMid meet" version="1.0"><defs><clipPath id="9b6a2ce99d"><path d="M 248 782.957031 L 259 782.957031 L 259 788 L 248 788 Z M 248 782.957031 " clip-rule="nonzero"/></clipPath><clipPath id="c165916ff4"><path d="M 258 787 L 263.320312 787 L 263.320312 798 L 258 798 Z M 258 787 " clip-rule="nonzero"/></clipPath><clipPath id="bd527fdbf2"><path d="M 248 797 L 259 797 L 259 802.449219 L 248 802.449219 Z M 248 797 " clip-rule="nonzero"/></clipPath><clipPath id="b268a43479"><path d="M 243.078125 787 L 248 787 L 248 798 L 243.078125 798 Z M 243.078125 787 " clip-rule="nonzero"/></clipPath><clipPath id="c237630c4e"><path d="M 502 609 L 697.984375 609 L 697.984375 873.703125 L 502 873.703125 Z M 502 609 " clip-rule="nonzero"/></clipPath><clipPath id="8d575bd720"><path d="M 111.773438 138.316406 L 629 138.316406 L 629 873.703125 L 111.773438 873.703125 Z M 111.773438 138.316406 " clip-rule="nonzero"/></clipPath></defs><path fill="#2aa3ff" d="M 252.769531 787.414062 C 253.417969 790.792969 249.550781 792.144531 249.550781 794.175781 C 249.550781 795.933594 250.992188 797.359375 252.769531 797.359375 C 254.550781 797.359375 255.992188 795.933594 255.992188 794.175781 C 255.992188 792.144531 254.382812 789.203125 252.769531 787.414062 Z M 252.769531 787.414062 " fill-opacity="1" fill-rule="evenodd"/><g clip-path="url(#9b6a2ce99d)"><path fill="#6c95b4" d="M 258.074219 786.394531 L 255.207031 787.402344 L 255.992188 786.035156 C 255.992188 786.035156 255.039062 785.207031 252.398438 785.207031 C 250.035156 785.207031 248.457031 786.507812 248.457031 786.507812 L 248.105469 784.847656 C 248.105469 784.847656 249.941406 783.457031 252.582031 783.542969 C 255.226562 783.628906 256.457031 784.644531 256.457031 784.644531 L 256.601562 782.957031 Z M 258.074219 786.394531 " fill-opacity="1" fill-rule="evenodd"/></g><g clip-path="url(#c165916ff4)"><path fill="#6c95b4" d="M 259.851562 797.082031 L 258.597656 794.339844 L 260.042969 795 C 260.042969 795 260.800781 793.996094 260.582031 791.390625 C 260.386719 789.066406 258.945312 787.617188 258.945312 787.617188 L 260.589844 787.136719 C 260.589844 787.136719 262.144531 788.828125 262.277344 791.4375 C 262.40625 794.046875 261.484375 795.34375 261.484375 795.34375 L 263.199219 795.34375 Z M 259.851562 797.082031 " fill-opacity="1" fill-rule="evenodd"/></g><g clip-path="url(#bd527fdbf2)"><path fill="#6c95b4" d="M 248.128906 799.011719 L 250.996094 797.992188 L 250.210938 799.363281 C 250.210938 799.363281 251.167969 800.1875 253.8125 800.175781 C 256.175781 800.167969 257.75 798.859375 257.75 798.859375 L 258.105469 800.519531 C 258.105469 800.519531 256.277344 801.917969 253.632812 801.84375 C 250.992188 801.765625 249.753906 800.753906 249.753906 800.753906 L 249.617188 802.441406 Z M 248.128906 799.011719 " fill-opacity="1" fill-rule="evenodd"/></g><g clip-path="url(#b268a43479)"><path fill="#6c95b4" d="M 246.886719 787.5625 L 247.8125 790.429688 L 246.453125 789.605469 C 246.453125 789.605469 245.582031 790.519531 245.496094 793.128906 C 245.417969 795.460938 246.683594 797.066406 246.683594 797.066406 L 244.992188 797.359375 C 244.992188 797.359375 243.644531 795.5 243.820312 792.890625 C 243.992188 790.285156 245.0625 789.101562 245.0625 789.101562 L 243.359375 788.90625 Z M 246.886719 787.5625 " fill-opacity="1" fill-rule="evenodd"/></g><g clip-path="url(#c237630c4e)"><path fill="#5cae36" d="M 694.769531 613.410156 C 692.472656 611.109375 689.601562 609.386719 686.15625 609.386719 L 513.839844 609.386719 C 510.394531 609.386719 507.523438 610.535156 505.226562 613.410156 C 502.925781 615.707031 501.777344 619.152344 502.351562 622.597656 L 529.347656 855.222656 C 530.496094 866.136719 539.6875 873.605469 550.601562 873.605469 L 648.820312 873.605469 C 659.734375 873.605469 668.925781 865.5625 670.074219 854.648438 L 697.070312 622.023438 C 698.21875 619.152344 697.070312 615.707031 694.769531 613.410156 Z M 673.519531 632.363281 L 670.648438 655.339844 L 529.347656 655.339844 L 526.476562 632.363281 Z M 648.246094 850.628906 L 551.75 850.628906 L 531.648438 678.3125 L 667.777344 678.3125 Z M 648.246094 850.628906 " fill-opacity="1" fill-rule="nonzero"/></g><path fill="#5cae36" d="M 232.394531 712.777344 C 232.394531 713.53125 232.320312 714.277344 232.171875 715.019531 C 232.023438 715.757812 231.808594 716.476562 231.519531 717.171875 C 231.230469 717.871094 230.875 718.53125 230.457031 719.160156 C 230.039062 719.785156 229.5625 720.367188 229.027344 720.898438 C 228.496094 721.433594 227.914062 721.910156 227.289062 722.328125 C 226.660156 722.746094 226 723.101562 225.300781 723.390625 C 224.605469 723.679688 223.886719 723.894531 223.148438 724.042969 C 222.40625 724.191406 221.660156 724.265625 220.90625 724.265625 C 220.152344 724.265625 219.40625 724.191406 218.664062 724.042969 C 217.925781 723.894531 217.207031 723.679688 216.507812 723.390625 C 215.8125 723.101562 215.152344 722.746094 214.523438 722.328125 C 213.894531 721.910156 213.316406 721.433594 212.78125 720.898438 C 212.25 720.367188 211.773438 719.785156 211.355469 719.160156 C 210.933594 718.53125 210.582031 717.871094 210.292969 717.171875 C 210.003906 716.476562 209.785156 715.757812 209.640625 715.019531 C 209.492188 714.277344 209.417969 713.53125 209.417969 712.777344 C 209.417969 712.023438 209.492188 711.273438 209.640625 710.535156 C 209.785156 709.796875 210.003906 709.078125 210.292969 708.378906 C 210.582031 707.683594 210.933594 707.023438 211.355469 706.394531 C 211.773438 705.765625 212.25 705.1875 212.78125 704.652344 C 213.316406 704.121094 213.894531 703.644531 214.523438 703.226562 C 215.152344 702.804688 215.8125 702.453125 216.507812 702.164062 C 217.207031 701.875 217.925781 701.65625 218.664062 701.507812 C 219.40625 701.363281 220.152344 701.289062 220.90625 701.289062 C 221.660156 701.289062 222.40625 701.363281 223.148438 701.507812 C 223.886719 701.65625 224.605469 701.875 225.300781 702.164062 C 226 702.453125 226.660156 702.804688 227.289062 703.226562 C 227.914062 703.644531 228.496094 704.121094 229.027344 704.652344 C 229.5625 705.1875 230.039062 705.765625 230.457031 706.394531 C 230.875 707.023438 231.230469 707.683594 231.519531 708.378906 C 231.808594 709.078125 232.023438 709.796875 232.171875 710.535156 C 232.320312 711.273438 232.394531 712.023438 232.394531 712.777344 Z M 232.394531 712.777344 " fill-opacity="1" fill-rule="nonzero"/><path fill="#5cae36" d="M 594.253906 428.457031 C 590.234375 428.457031 586.214844 430.753906 583.914062 434.777344 C 583.914062 434.777344 544.28125 508.871094 544.28125 508.871094 C 536.816406 524.953125 538.539062 543.90625 548.304688 558.84375 C 558.644531 574.351562 575.300781 583.539062 594.253906 583.539062 C 613.210938 583.539062 630.441406 574.351562 640.203125 558.84375 C 649.96875 543.90625 651.691406 524.953125 644.226562 508.871094 C 644.226562 508.871094 604.59375 434.777344 604.59375 434.777344 C 602.296875 430.753906 598.273438 428.457031 594.253906 428.457031 Z M 621.25 546.207031 C 615.507812 555.394531 605.167969 560.566406 594.253906 560.566406 C 583.339844 560.566406 573.578125 555.394531 567.257812 546.207031 C 561.515625 537.589844 560.941406 527.824219 564.960938 518.0625 L 594.253906 464.070312 L 623.546875 518.0625 C 627.570312 527.824219 626.417969 537.589844 621.25 546.207031 Z M 621.25 546.207031 " fill-opacity="1" fill-rule="nonzero"/><path fill="#5cae36" d="M 590.234375 770.214844 C 590.234375 763.898438 585.0625 758.726562 578.746094 758.726562 L 567.257812 758.726562 C 560.941406 758.726562 555.769531 763.898438 555.769531 770.214844 C 555.769531 776.53125 560.941406 781.703125 567.257812 781.703125 L 578.746094 781.703125 C 585.0625 781.703125 590.234375 776.53125 590.234375 770.214844 Z M 590.234375 770.214844 " fill-opacity="1" fill-rule="nonzero"/><path fill="#5cae36" d="M 636.183594 758.726562 L 624.695312 758.726562 C 618.378906 758.726562 613.210938 763.898438 613.210938 770.214844 C 613.210938 776.53125 618.378906 781.703125 624.695312 781.703125 L 636.183594 781.703125 C 642.503906 781.703125 647.671875 776.53125 647.671875 770.214844 C 647.671875 763.898438 642.503906 758.726562 636.183594 758.726562 Z M 636.183594 758.726562 " fill-opacity="1" fill-rule="nonzero"/><path fill="#5cae36" d="M 607.464844 804.679688 L 595.976562 804.679688 C 589.660156 804.679688 584.488281 809.847656 584.488281 816.164062 C 584.488281 822.484375 589.660156 827.652344 595.976562 827.652344 L 607.464844 827.652344 C 613.785156 827.652344 618.953125 822.484375 618.953125 816.164062 C 618.953125 809.847656 613.785156 804.679688 607.464844 804.679688 Z M 607.464844 804.679688 " fill-opacity="1" fill-rule="nonzero"/><g clip-path="url(#8d575bd720)"><path fill="#5cae36" d="M 398.964844 207.320312 C 487.417969 207.320312 559.792969 279.691406 559.792969 368.148438 L 559.792969 376.761719 C 559.792969 389.398438 570.128906 399.738281 582.765625 399.738281 L 605.742188 399.738281 C 618.378906 399.738281 628.71875 389.398438 628.71875 376.761719 L 628.71875 368.148438 C 628.71875 241.207031 525.902344 138.394531 398.964844 138.394531 C 272.027344 138.394531 169.210938 241.207031 169.210938 368.148438 L 169.210938 552.523438 C 159.445312 554.820312 151.980469 564.011719 151.980469 574.925781 L 151.980469 793.191406 L 136.472656 793.191406 C 122.6875 793.191406 111.773438 803.527344 111.773438 816.164062 L 111.773438 862.117188 C 111.773438 868.433594 116.941406 873.605469 123.261719 873.605469 C 129.578125 873.605469 134.75 868.433594 134.75 862.117188 L 134.75 816.738281 C 134.75 816.738281 295.574219 816.738281 295.574219 816.738281 L 295.574219 862.117188 C 295.574219 868.433594 300.746094 873.605469 307.0625 873.605469 C 313.382812 873.605469 318.550781 868.433594 318.550781 862.117188 L 318.550781 816.164062 C 318.550781 803.527344 307.636719 793.191406 293.851562 793.191406 L 263.410156 793.191406 C 262.835938 781.128906 265.132812 772.511719 270.300781 767.34375 C 274.898438 762.171875 281.214844 761.023438 285.238281 761.023438 C 293.277344 760.449219 299.023438 755.28125 300.746094 747.8125 L 353.011719 747.8125 C 378.285156 747.8125 398.964844 727.136719 398.964844 701.863281 L 398.964844 551.949219 C 398.964844 532.996094 383.457031 517.488281 364.5 517.488281 C 345.546875 517.488281 330.039062 532.996094 330.039062 551.949219 L 330.039062 678.3125 L 301.320312 678.3125 C 301.320312 671.421875 296.722656 665.101562 289.832031 662.804688 L 275.472656 657.636719 C 270.875 655.914062 268.003906 651.316406 268.003906 646.148438 L 268.003906 574.925781 C 268.003906 562.289062 257.667969 551.949219 245.605469 551.949219 L 238.136719 551.949219 L 238.136719 368.148438 C 238.136719 279.691406 310.507812 207.320312 398.964844 207.320312 Z M 335.78125 701.289062 C 345.546875 701.289062 353.011719 693.820312 353.011719 684.058594 L 353.011719 551.949219 C 353.011719 545.632812 358.183594 540.460938 364.5 540.460938 C 370.820312 540.460938 375.988281 545.632812 375.988281 551.949219 L 375.988281 701.289062 C 375.988281 713.925781 365.648438 724.265625 353.011719 724.265625 L 301.320312 724.265625 L 301.320312 701.289062 Z M 278.34375 682.910156 L 278.34375 738.050781 C 268.003906 739.773438 259.390625 744.367188 253.070312 751.261719 C 244.457031 761.023438 240.433594 774.808594 240.433594 792.617188 L 174.953125 792.617188 L 174.953125 631.789062 L 245.605469 631.789062 L 245.605469 645.574219 C 245.605469 660.507812 254.792969 673.71875 268.578125 678.3125 Z M 245.03125 609.386719 L 174.378906 609.386719 L 174.378906 574.925781 L 245.03125 574.925781 Z M 192.1875 551.949219 L 192.1875 368.148438 C 192.1875 253.84375 284.664062 161.371094 398.964844 161.371094 C 513.265625 161.371094 605.742188 253.84375 605.742188 368.148438 L 605.742188 376.761719 L 582.765625 376.761719 C 582.765625 376.761719 582.765625 364.699219 582.765625 364.125 C 580.46875 264.757812 498.90625 184.34375 398.964844 184.34375 C 297.871094 184.34375 215.160156 267.054688 215.160156 368.148438 L 215.160156 551.949219 Z M 192.1875 551.949219 " fill-opacity="1" fill-rule="nonzero"/></g></svg>